<svg width="18" height="15" viewBox="0 0 18 15" fill="none" xmlns="http://www.w3.org/2000/svg">
<path fill-rule="evenodd" clip-rule="evenodd" d="M2.45455 3.93637C2.84115 3.93637 3.15455 4.24977 3.15455 4.63637V13.3909H14.8455V4.63637C14.8455 4.24977 15.1589 3.93637 15.5455 3.93637C15.9321 3.93637 16.2455 4.24977 16.2455 4.63637V14.0909C16.2455 14.4775 15.9321 14.7909 15.5455 14.7909H2.45455C2.06795 14.7909 1.75455 14.4775 1.75455 14.0909V4.63637C1.75455 4.24977 2.06795 3.93637 2.45455 3.93637Z" fill="#2D3A45"/>
<path fill-rule="evenodd" clip-rule="evenodd" d="M0.299988 1C0.299988 0.613404 0.613388 0.300003 0.999988 0.300003H17C17.3866 0.300003 17.7 0.613404 17.7 1V4.63637C17.7 5.02297 17.3866 5.33637 17 5.33637H0.999988C0.613388 5.33637 0.299988 5.02297 0.299988 4.63637V1ZM1.69999 1.7V3.93637H16.3V1.7H1.69999Z" fill="#2D3A45"/>
<path fill-rule="evenodd" clip-rule="evenodd" d="M6.84543 7.54546C6.84543 7.15886 7.15883 6.84546 7.54543 6.84546H10.4545C10.8411 6.84546 11.1545 7.15886 11.1545 7.54546C11.1545 7.93206 10.8411 8.24546 10.4545 8.24546H7.54543C7.15883 8.24546 6.84543 7.93206 6.84543 7.54546Z" fill="#2D3A45"/>
</svg>
