<svg width="18" height="15" viewBox="0 0 18 15" fill="none" xmlns="http://www.w3.org/2000/svg">
<path fill-rule="evenodd" clip-rule="evenodd" d="M0.299988 12.6364C0.299988 10.6431 1.91583 9.02726 3.90908 9.02726H9.72726C11.7205 9.02726 13.3364 10.6431 13.3364 12.6364V14.0909C13.3364 14.4775 13.023 14.7909 12.6364 14.7909C12.2498 14.7909 11.9364 14.4775 11.9364 14.0909V12.6364C11.9364 11.4163 10.9473 10.4273 9.72726 10.4273H3.90908C2.68903 10.4273 1.69999 11.4163 1.69999 12.6364V14.0909C1.69999 14.4775 1.38659 14.7909 0.999988 14.7909C0.613388 14.7909 0.299988 14.4775 0.299988 14.0909V12.6364Z" fill="#2D3A45"/>
<path fill-rule="evenodd" clip-rule="evenodd" d="M3.20908 3.90908C3.20908 1.91583 4.82492 0.299988 6.81817 0.299988C8.81141 0.299988 10.4273 1.91583 10.4273 3.90908C10.4273 5.90232 8.81141 7.51817 6.81817 7.51817C4.82492 7.51817 3.20908 5.90232 3.20908 3.90908ZM6.81817 1.69999C5.59812 1.69999 4.60908 2.68903 4.60908 3.90908C4.60908 5.12913 5.59812 6.11817 6.81817 6.11817C8.03821 6.11817 9.02726 5.12913 9.02726 3.90908C9.02726 2.68903 8.03821 1.69999 6.81817 1.69999Z" fill="#2D3A45"/>
<path fill-rule="evenodd" clip-rule="evenodd" d="M14.1404 9.64681C14.2371 9.27248 14.6189 9.04738 14.9932 9.14403C16.5857 9.55522 17.6988 10.9911 17.7 12.6358L17.7 14.0909C17.7 14.4775 17.3866 14.7909 17 14.7909C16.6134 14.7909 16.3 14.4775 16.3 14.0909V12.6366C16.2991 11.63 15.6178 10.7512 14.6432 10.4996C14.2689 10.4029 14.0438 10.0211 14.1404 9.64681Z" fill="#2D3A45"/>
<path fill-rule="evenodd" clip-rule="evenodd" d="M11.231 0.920904C11.3269 0.546386 11.7082 0.320515 12.0827 0.416407C13.6797 0.82529 14.7966 2.26425 14.7966 3.91271C14.7966 5.56117 13.6797 7.00014 12.0827 7.40902C11.7082 7.50491 11.3269 7.27904 11.231 6.90452C11.1351 6.53 11.3609 6.14866 11.7355 6.05277C12.7129 5.8025 13.3966 4.92172 13.3966 3.91271C13.3966 2.90371 12.7129 2.02293 11.7355 1.77266C11.3609 1.67676 11.1351 1.29542 11.231 0.920904Z" fill="#2D3A45"/>
</svg>
