<svg width="15" height="18" viewBox="0 0 15 18" fill="none" xmlns="http://www.w3.org/2000/svg">
<path fill-rule="evenodd" clip-rule="evenodd" d="M7.54544 1.69999C4.31709 1.69999 1.69999 4.31709 1.69999 7.54544C1.69999 9.80954 3.17237 12.0025 4.78088 13.7004C5.57083 14.5342 6.36315 15.2167 6.95876 15.691C7.18824 15.8738 7.38767 16.0249 7.54544 16.1412C7.70321 16.0249 7.90265 15.8738 8.13212 15.691C8.72774 15.2167 9.52006 14.5342 10.31 13.7004C11.9185 12.0025 13.3909 9.80954 13.3909 7.54544C13.3909 4.31709 10.7738 1.69999 7.54544 1.69999ZM7.54544 17C7.15715 17.5824 7.15697 17.5823 7.15677 17.5822L7.15473 17.5808L7.14993 17.5776L7.13336 17.5664C7.11927 17.5568 7.09914 17.543 7.07338 17.5252C7.02186 17.4895 6.94778 17.4375 6.85435 17.37C6.66757 17.2351 6.40305 17.0382 6.08667 16.7862C5.45501 16.2832 4.61097 15.5567 3.76455 14.6632C2.10034 12.9066 0.299988 10.3723 0.299988 7.54544C0.299988 3.54389 3.54389 0.299988 7.54544 0.299988C11.547 0.299988 14.7909 3.54389 14.7909 7.54544C14.7909 10.3723 12.9905 12.9066 11.3263 14.6632C10.4799 15.5567 9.63587 16.2832 9.00422 16.7862C8.68784 17.0382 8.42332 17.2351 8.23654 17.37C8.14311 17.4375 8.06903 17.4895 8.01751 17.5252C7.99175 17.543 7.97162 17.5568 7.95752 17.5664L7.94095 17.5776L7.93616 17.5808L7.93465 17.5818C7.93444 17.5819 7.93373 17.5824 7.54544 17ZM7.54544 17L7.93373 17.5824C7.6986 17.7392 7.3919 17.7389 7.15677 17.5822L7.54544 17Z" fill="#2D3A45"/>
<path fill-rule="evenodd" clip-rule="evenodd" d="M4.66364 7.54544C4.66364 5.95386 5.95387 4.66362 7.54545 4.66362C9.13704 4.66362 10.4273 5.95386 10.4273 7.54544C10.4273 9.13703 9.13704 10.4273 7.54545 10.4273C5.95387 10.4273 4.66364 9.13703 4.66364 7.54544ZM7.54545 6.06362C6.72707 6.06362 6.06364 6.72706 6.06364 7.54544C6.06364 8.36383 6.72707 9.02726 7.54545 9.02726C8.36384 9.02726 9.02727 8.36383 9.02727 7.54544C9.02727 6.72706 8.36384 6.06362 7.54545 6.06362Z" fill="#2D3A45"/>
</svg>
