<svg width="18" height="18" viewBox="0 0 18 18" fill="none" xmlns="http://www.w3.org/2000/svg">
<path fill-rule="evenodd" clip-rule="evenodd" d="M11.9711 2.12739C9.01805 0.811588 5.55126 1.59486 3.45075 4.05246C1.35024 6.51005 1.11638 10.0565 2.876 12.7687C4.63562 15.4808 7.96955 16.7125 11.0698 15.7958C14.1701 14.8792 16.2982 12.0325 16.3 8.79959V8.06399C16.3 7.67739 16.6134 7.36399 17 7.36399C17.3866 7.36399 17.7 7.67739 17.7 8.06399V8.79999C17.6978 12.653 15.1616 16.0459 11.4668 17.1384C7.77192 18.2308 3.79862 16.7629 1.70154 13.5306C-0.395544 10.2984 -0.116842 6.07176 2.3865 3.14285C4.88985 0.213935 9.02151 -0.719558 12.5409 0.848595C12.894 1.00594 13.0528 1.41976 12.8954 1.77289C12.7381 2.12603 12.3242 2.28474 11.9711 2.12739Z" fill="#2D3A45"/>
<path fill-rule="evenodd" clip-rule="evenodd" d="M17.4947 1.90477C17.7682 2.17801 17.7684 2.62122 17.4952 2.89472L9.49522 10.9027C9.36396 11.0341 9.18588 11.108 9.00017 11.108C8.81446 11.108 8.63634 11.0343 8.50502 10.903L6.10502 8.50297C5.83165 8.2296 5.83165 7.78639 6.10502 7.51302C6.37839 7.23966 6.8216 7.23966 7.09497 7.51302L8.99975 9.4178L16.5048 1.90527C16.778 1.63177 17.2212 1.63154 17.4947 1.90477Z" fill="#2D3A45"/>
</svg>
