<svg width="18" height="18" viewBox="0 0 18 18" fill="none" xmlns="http://www.w3.org/2000/svg">
<path fill-rule="evenodd" clip-rule="evenodd" d="M6.29999 9.18181C6.29999 7.59022 7.59022 6.29999 9.18181 6.29999C10.7734 6.29999 12.0636 7.59022 12.0636 9.18181C12.0636 10.7734 10.7734 12.0636 9.18181 12.0636C7.59022 12.0636 6.29999 10.7734 6.29999 9.18181ZM9.18181 7.69999C8.36342 7.69999 7.69999 8.36342 7.69999 9.18181C7.69999 10.0002 8.36342 10.6636 9.18181 10.6636C10.0002 10.6636 10.6636 10.0002 10.6636 9.18181C10.6636 8.36342 10.0002 7.69999 9.18181 7.69999Z" fill="#2D3A45"/>
<path fill-rule="evenodd" clip-rule="evenodd" d="M8.99999 1.69999C8.58326 1.69999 8.24544 2.03781 8.24544 2.45453V2.58096C8.24242 3.33825 7.78998 4.02143 7.09392 4.31975C7.03391 4.34547 6.97072 4.36261 6.90623 4.37079C6.22798 4.60972 5.46693 4.44548 4.94687 3.93676L4.94135 3.93136L4.89774 3.88769C4.75621 3.746 4.56389 3.66612 4.36362 3.66612C4.16336 3.66612 3.97131 3.74573 3.82978 3.88741C3.6881 4.02894 3.60793 4.22154 3.60793 4.42181C3.60793 4.62207 3.68755 4.81412 3.82923 4.95565L3.8786 5.00502C4.41657 5.55499 4.56929 6.37447 4.26739 7.08051C3.99279 7.8013 3.30893 8.28536 2.53636 8.30343L2.51999 8.30362H2.45453C2.03781 8.30362 1.69999 8.64145 1.69999 9.05817C1.69999 9.47489 2.03781 9.81272 2.45453 9.81272H2.58096C3.337 9.81574 4.01917 10.2667 4.31827 10.9608C4.62988 11.6706 4.47901 12.4988 3.93676 13.0531L3.93136 13.0586L3.88769 13.1022C3.746 13.2438 3.66612 13.4361 3.66612 13.6364C3.66612 13.8366 3.74573 14.0287 3.88741 14.1702C4.02894 14.3119 4.22154 14.392 4.42181 14.392C4.62207 14.392 4.81412 14.3124 4.95565 14.1707L5.00502 14.1214C5.55499 13.5834 6.37447 13.4307 7.08052 13.7326C7.80131 14.0072 8.28536 14.691 8.30343 15.4636L8.30362 15.48V15.5454C8.30362 15.9622 8.64145 16.3 9.05817 16.3C9.47489 16.3 9.81272 15.9622 9.81272 15.5454V15.4218L9.81272 15.419C9.81574 14.663 10.2667 13.9808 10.9609 13.6817C11.6707 13.3701 12.4988 13.521 13.0531 14.0632L13.0586 14.0686L13.1022 14.1123C13.2438 14.254 13.4361 14.3339 13.6364 14.3339C13.8366 14.3339 14.0287 14.2542 14.1702 14.1126C14.3119 13.971 14.392 13.7784 14.392 13.5782C14.392 13.3779 14.3124 13.1859 14.1707 13.0443L14.1214 12.995C13.5791 12.4406 13.4283 11.6125 13.7399 10.9027C14.0389 10.2085 14.7211 9.75755 15.4772 9.75454L15.48 9.75453L15.5454 9.75453C15.9622 9.75453 16.3 9.41671 16.3 8.99999C16.3 8.58326 15.9622 8.24544 15.5454 8.24544H15.4218L15.419 8.24544C14.6617 8.24242 13.9785 7.78998 13.6802 7.09392C13.6545 7.03391 13.6374 6.97072 13.6292 6.90623C13.3903 6.22798 13.5545 5.46693 14.0632 4.94687L14.0686 4.94135L14.1123 4.89774C14.254 4.75621 14.3339 4.56389 14.3339 4.36362C14.3339 4.16336 14.2542 3.97131 14.1126 3.82978C13.971 3.6881 13.7784 3.60793 13.5782 3.60793C13.3779 3.60793 13.1859 3.68755 13.0443 3.82923L12.995 3.8786C12.4406 4.42086 11.6124 4.5717 10.9026 4.26009C10.2085 3.96099 9.75755 3.27882 9.75454 2.52278L9.75453 2.51999V2.45453C9.75453 2.03781 9.41671 1.69999 8.99999 1.69999ZM6.84544 2.45453C6.84544 1.26461 7.81006 0.299988 8.99999 0.299988C10.1899 0.299988 11.1545 1.26461 11.1545 2.45453V2.51832C11.1558 2.71716 11.2747 2.89641 11.4576 2.97477L11.4645 2.97773C11.6505 3.05985 11.8677 3.02108 12.0138 2.87987L12.0538 2.83983C12.0537 2.83993 12.0539 2.83974 12.0538 2.83983C12.4579 2.43543 13.0065 2.20793 13.5782 2.20793C14.1497 2.20793 14.6979 2.43505 15.102 2.83928C15.1019 2.83919 15.1021 2.83938 15.102 2.83928M15.102 5.88797L15.0619 5.92803C14.9207 6.07414 14.8819 6.29129 14.964 6.47735C14.9845 6.5238 14.9999 6.57222 15.0098 6.62172C15.1008 6.75894 15.2551 6.84442 15.4236 6.84544H15.5454C16.7354 6.84544 17.7 7.81007 17.7 8.99999C17.7 10.1899 16.7354 11.1545 15.5454 11.1545H15.4817C15.2828 11.1558 15.1036 11.2747 15.0252 11.4576L15.0222 11.4645C14.9401 11.6505 14.9789 11.8677 15.1201 12.0138L15.1601 12.0538C15.1601 12.0537 15.1602 12.0539 15.1601 12.0538C15.5645 12.4579 15.792 13.0065 15.792 13.5782C15.792 14.15 15.5647 14.6984 15.1601 15.1025C14.756 15.5071 14.2082 15.7339 13.6364 15.7339C13.0646 15.7339 12.5164 15.5066 12.1123 15.1022C12.1122 15.1021 12.1124 15.1023 12.1123 15.1022L12.0719 15.0619C11.9258 14.9207 11.7087 14.8819 11.5226 14.964L11.5158 14.9671C11.3329 15.0454 11.214 15.2246 11.2127 15.4235V15.5454C11.2127 16.7354 10.2481 17.7 9.05817 17.7C7.86825 17.7 6.90362 16.7354 6.90362 15.5454V15.4899C6.8963 15.2873 6.76722 15.1089 6.57654 15.0388C6.5627 15.0337 6.54903 15.0282 6.53553 15.0222C6.34947 14.9401 6.13232 14.9789 5.98622 15.1201L5.94615 15.1601C5.54202 15.5647 4.99364 15.792 4.42181 15.792C3.84999 15.792 3.30162 15.5647 2.8975 15.1602C2.89749 15.1602 2.89751 15.1602 2.8975 15.1602M2.89802 12.112C2.89792 12.1121 2.89811 12.1119 2.89802 12.112C2.49361 12.5161 2.26612 13.0646 2.26612 13.6364C2.26612 14.2079 2.49327 14.7561 2.8975 15.1602M2.89802 12.112L2.93806 12.072C3.07927 11.9259 3.11807 11.7087 3.03595 11.5226L3.03292 11.5158C2.95456 11.3329 2.77534 11.214 2.5765 11.2127H2.45453C1.26461 11.2127 0.299988 10.2481 0.299988 9.05817C0.299988 7.86825 1.26461 6.90362 2.45453 6.90362H2.51004C2.71265 6.8963 2.89107 6.76722 2.96119 6.57654C2.96628 6.5627 2.97181 6.54903 2.97777 6.53553C3.05989 6.34946 3.02108 6.1323 2.87989 5.9862L2.83983 5.94615C2.43526 5.54202 2.20793 4.99364 2.20793 4.42181C2.20793 3.8501 2.43516 3.30184 2.83956 2.89774C3.24366 2.49334 3.79192 2.26612 4.36362 2.26612C4.93546 2.26612 5.48384 2.49344 5.88797 2.89802L5.92801 2.93806C6.07412 3.07927 6.29128 3.11807 6.47735 3.03595C6.52381 3.01545 6.57223 3.00011 6.62174 2.99014C6.75895 2.89921 6.84442 2.74484 6.84544 2.57642V2.45453M15.102 5.88797C15.5065 5.48384 15.7339 4.93546 15.7339 4.36362C15.7339 3.79192 15.5064 3.24338 15.102 2.83928" fill="#2D3A45"/>
</svg>
