<svg width="14" height="18" viewBox="0 0 14 18" fill="none" xmlns="http://www.w3.org/2000/svg">
<path fill-rule="evenodd" clip-rule="evenodd" d="M13 6.25C13.4142 6.25 13.75 6.58579 13.75 7V17C13.75 17.4142 13.4142 17.75 13 17.75C12.5858 17.75 12.25 17.4142 12.25 17V7C12.25 6.58579 12.5858 6.25 13 6.25Z" fill="#2D3A45"/>
<path fill-rule="evenodd" clip-rule="evenodd" d="M7 0.25C7.41421 0.25 7.75 0.585786 7.75 1V17C7.75 17.4142 7.41421 17.75 7 17.75C6.58579 17.75 6.25 17.4142 6.25 17V1C6.25 0.585786 6.58579 0.25 7 0.25Z" fill="#2D3A45"/>
<path fill-rule="evenodd" clip-rule="evenodd" d="M1 10.25C1.41421 10.25 1.75 10.5858 1.75 11V17C1.75 17.4142 1.41421 17.75 1 17.75C0.585786 17.75 0.25 17.4142 0.25 17V11C0.25 10.5858 0.585786 10.25 1 10.25Z" fill="#2D3A45"/>
</svg>
